<svg width="1600" height="541" viewBox="0 0 1600 541" fill="none" xmlns="http://www.w3.org/2000/svg">
<path d="M449.965 523.76C272.5 574.864 45.2199 501.754 8.62307e-06 442.363L4.73076e-05 -0.136431L1600 -0.136414L1600 405.978C1498.17 563.287 1182.79 550.045 1037.82 523.76C946.639 503.631 696.01 452.908 449.965 523.76Z" fill="#F9F9F9"/>
<path d="M0 42.9998C0 42.9998 59.6192 33.0356 71.8277 82.5278C80.4858 117.631 51.3193 133.574 43.5332 168.97C35.7472 204.366 59.37 267.97 -0.58252 264.892" stroke="#EAEAEA" stroke-width="3" stroke-miterlimit="10"/>
<path d="M1500.05 0C1494.68 11.9592 1490.98 22.1152 1487.42 34.7351C1481.84 54.5051 1474.67 104.565 1508.84 116.035C1542.12 127.215 1599.5 101.5 1599.5 101.5" stroke="#EAEAEA" stroke-width="3" stroke-miterlimit="10"/>
<path d="M1538.92 469C1538.92 469 1498.76 462.683 1487.31 429.965C1478.94 405.991 1484.47 383.204 1474.42 368C1450.55 331.847 1387.03 351.565 1374.64 398.752C1362.11 446.514 1407.18 487.712 1469.8 502.977" stroke="#EAEAEA" stroke-width="3" stroke-miterlimit="10"/>
<path d="M352.706 539.55C352.706 539.55 344.744 455.854 264.696 441.15C213.703 431.783 180.167 484.917 122.274 486.159C64.3817 487.401 52.9288 436.843 15.4175 458.5" stroke="#EAEAEA" stroke-width="3" stroke-miterlimit="10"/>
</svg>
