<svg width="1600" height="559" viewBox="0 0 1600 559" fill="none" xmlns="http://www.w3.org/2000/svg">
<path d="M498.883 21.9678C958.776 136.968 974.114 -20.2246 1270.2 2.46784C1524.64 21.9684 1599.63 144.468 1599.63 144.468V559.5H0V72.0199C0.0104979 71.9829 222.375 -47.1756 498.883 21.9678Z" fill="#F9F9F9"/>
<path d="M1600 524.65C1600 524.65 1559.85 518.334 1548.41 485.616C1540.03 461.641 1545.56 438.854 1535.51 423.65C1511.65 387.497 1448.15 407.215 1435.76 454.402C1423.23 502.164 1468.3 543.362 1530.89 558.627" stroke="#EAEAEA" stroke-width="3" stroke-miterlimit="10"/>
<path d="M230.236 559.016C230.236 559.016 240.964 495.712 185.427 469.201C150.048 452.313 115.062 484.95 72.5497 474.538C30.037 464.126 31.6671 424.587 0 433.224" stroke="#EAEAEA" stroke-width="3" stroke-miterlimit="10"/>
</svg>
