<svg width="1600" height="425" viewBox="0 0 1600 425" fill="none" xmlns="http://www.w3.org/2000/svg">
<path d="M449.965 380.897C272.5 432.001 45.2199 358.891 8.61993e-06 299.501L3.47935e-05 0.000500942L1600 0.000488281L1600 263.115C1498.17 420.424 1182.79 407.182 1037.82 380.897C946.639 360.768 696.01 310.045 449.965 380.897Z" fill="#F9F9F9"/>
<path d="M0.527416 30.7443C0.527416 30.7443 54.5069 21.7112 65.5606 66.5788C73.3997 98.4018 46.9921 112.855 39.9426 144.944C32.8931 177.032 54.2814 234.693 0 231.902" stroke="#EAEAEA" stroke-width="3" stroke-miterlimit="10"/>
<path d="M1500.09 0.136475C1494.71 12.0957 1491.02 22.2517 1487.46 34.8716C1481.88 54.6416 1474.71 104.702 1508.87 116.172C1542.14 127.352 1599.5 101.636 1599.5 101.636" stroke="#EAEAEA" stroke-width="3" stroke-miterlimit="10"/>
<path d="M1530 329.921C1530 329.921 1494.52 324.33 1484.41 295.366C1477 274.143 1481.89 253.97 1473.01 240.51C1451.92 208.506 1395.8 225.961 1384.86 267.734C1373.78 310.015 1413.6 346.487 1468.93 360" stroke="#EAEAEA" stroke-width="3" stroke-miterlimit="10"/>
<path d="M379.693 386.23C379.693 386.23 363.678 317.961 296.411 314.811C253.56 312.805 232.102 360.485 184.799 368.021C137.497 375.558 122.378 335.066 94.0929 357.181" stroke="#EAEAEA" stroke-width="3" stroke-miterlimit="10"/>
</svg>
