<svg data-name="Layer 1" xmlns="http://www.w3.org/2000/svg" width="534.64144" height="387.64173" viewBox="0 0 534.64144 387.64173" xmlns:xlink="http://www.w3.org/1999/xlink"><path d="M439.8034,623.8c-.829,6.5126-3.46969,12.57444-6.59308,18.41084-.28184.53935-.57153,1.07875-.86949,1.61005H380.44917c-1.06249-.49106-2.10925-1.03046-3.13164-1.61005a44.53957,44.53957,0,0,1-3.93628-2.51972c-15.30366-11.02075-21.19628-31.86277-18.53161-50.53122,1.65014-11.6084,6.73773-23.45029,16.65585-29.69721a25.00785,25.00785,0,0,1,17.98406-3.14767c.1529.02418.31407.06442.47483.0966a18.55074,18.55074,0,0,1,12.42988,8.73452c4.72518,8.39637,1.91586,18.79723-.41076,28.14352-2.31837,9.34634-3.57425,20.53611,3.15562,27.4271a17.15393,17.15393,0,0,1,19.9404-22.29911c.491.10465.96619.22543,1.441.37032a15.6463,15.6463,0,0,1,3.28455,1.36855C437.73464,604.58412,440.94647,614.79179,439.8034,623.8Z" transform="translate(-332.67928 -256.17913)" fill="#f2f2f2"/><path d="M403.40054,642.21082q1.91979.88147,3.904,1.61005h-3.68706c-1.1187-.49911-2.22167-1.03046-3.30853-1.61005a45.68134,45.68134,0,0,1-13.9106-11.08516,37.078,37.078,0,0,1-5.73185-9.37042,42.48877,42.48877,0,0,1-2.93825-11.99484,85.18388,85.18388,0,0,1,1.69063-25.43065,105.81974,105.81974,0,0,1,8.29156-24.87514c.45086-.94992.9257-1.89183,1.40879-2.82564a.538.538,0,0,1,.37028-.314.60157.60157,0,0,1,.47483.0966.74644.74644,0,0,1,.298.99021,104.40613,104.40613,0,0,0-8.79864,23.98158,92.05557,92.05557,0,0,0-2.61632,24.95567c.34591,7.7926,2.38283,15.46448,7.01171,21.84024a44.114,44.114,0,0,0,16.49469,13.54047C402.70008,641.88879,403.046,642.04981,403.40054,642.21082Z" transform="translate(-332.67928 -256.17913)" fill="#fff"/><path d="M425.27292,642.21082c.35416.54741.7323,1.08676,1.14306,1.61005h-1.7146c-.37853-.52329-.73269-1.06264-1.079-1.61005a39.64547,39.64547,0,0,1-5.46613-13.83026,38.594,38.594,0,0,1,3.3329-24.01381,39.44754,39.44754,0,0,1,3.59036-5.94912c.491.10465.96619.22543,1.441.37032a37.92608,37.92608,0,0,0-7.07617,16.22922,37.34565,37.34565,0,0,0,3.29241,22.79822A35.59127,35.59127,0,0,0,425.27292,642.21082Z" transform="translate(-332.67928 -256.17913)" fill="#fff"/><path d="M866.32072,280.54876h-169a1,1,0,0,1,0-2h169a1,1,0,0,1,0,2Z" transform="translate(-332.67928 -256.17913)" fill="#3f3d56"/><path d="M811.32072,264.17913h-57a4,4,0,0,1,0-8h57a4,4,0,1,1,0,8Z" transform="translate(-332.67928 -256.17913)" fill="#ccc"/><path d="M751.686,454.07364a4.31988,4.31988,0,0,1-.8074-3.70516,102.3282,102.3282,0,0,0-.0003-47.52515,4.321,4.321,0,0,1,.8077-3.70516,4.24783,4.24783,0,0,1,3.35526-1.62564H794.9135a4.30186,4.30186,0,0,1,4.23709,3.60571,167.48663,167.48663,0,0,1,0,50.97534,4.30186,4.30186,0,0,1-4.23709,3.60571H755.04128A4.24784,4.24784,0,0,1,751.686,454.07364Z" transform="translate(-332.67928 -256.17913)" fill="#e6e6e6"/><path d="M806.1166,385.49359a167.48733,167.48733,0,0,1,0-50.97535,4.30156,4.30156,0,0,1,4.2368-3.6057h39.87252a4.24661,4.24661,0,0,1,3.35526,1.62624,4.31916,4.31916,0,0,1,.80739,3.70456,102.32847,102.32847,0,0,0-.0003,47.52515,4.31805,4.31805,0,0,1-.80709,3.70456,4.24661,4.24661,0,0,1-3.35526,1.62624H810.3534A4.30156,4.30156,0,0,1,806.1166,385.49359Z" transform="translate(-332.67928 -256.17913)" fill="#537ee2"/><path d="M716.05549,370.38552a4.39088,4.39088,0,0,1-.82066-3.766,104.00137,104.00137,0,0,0-.0003-48.30591,4.392,4.392,0,0,1,.821-3.766,4.3176,4.3176,0,0,1,3.41038-1.65235h40.52726a4.37255,4.37255,0,0,1,4.30671,3.66494,170.23877,170.23877,0,0,1,0,51.81279,4.37255,4.37255,0,0,1-4.30671,3.66494H719.46587A4.3176,4.3176,0,0,1,716.05549,370.38552Z" transform="translate(-332.67928 -256.17913)" fill="#537ee2"/><path d="M752.17252,334.717H730.82316a3.00328,3.00328,0,0,1-3-3v-1.27393a3.00328,3.00328,0,0,1,3-3h21.34936a3.00328,3.00328,0,0,1,3,3V331.717A3.00328,3.00328,0,0,1,752.17252,334.717Z" transform="translate(-332.67928 -256.17913)" fill="#fff"/><path d="M752.17252,347.26434H730.82316a3.00328,3.00328,0,0,1-3-3v-1.27393a3.00328,3.00328,0,0,1,3-3h21.34936a3.00328,3.00328,0,0,1,3,3v1.27393A3.00328,3.00328,0,0,1,752.17252,347.26434Z" transform="translate(-332.67928 -256.17913)" fill="#fff"/><path d="M786.71256,416.93866H765.78922a3.00328,3.00328,0,0,1-3-3v-1.17237a3.00328,3.00328,0,0,1,3-3h20.92334a3.00328,3.00328,0,0,1,3,3v1.17237A3.00328,3.00328,0,0,1,786.71256,416.93866Z" transform="translate(-332.67928 -256.17913)" fill="#fff"/><path d="M786.71256,431.75213H765.78922a3.00328,3.00328,0,0,1-3-3v-1.17236a3.00328,3.00328,0,0,1,3-3h20.92334a3.00328,3.00328,0,0,1,3,3v1.17236A3.00328,3.00328,0,0,1,786.71256,431.75213Z" transform="translate(-332.67928 -256.17913)" fill="#fff"/><path d="M786.71256,446.56561H765.78922a3.00328,3.00328,0,0,1-3-3v-1.17236a3.00328,3.00328,0,0,1,3-3h20.92334a3.00328,3.00328,0,0,1,3,3v1.17236A3.00328,3.00328,0,0,1,786.71256,446.56561Z" transform="translate(-332.67928 -256.17913)" fill="#fff"/><path d="M838.684,356.82391H817.76041a3.00328,3.00328,0,0,1-3-3v-1.17236a3.00328,3.00328,0,0,1,3-3H838.684a3.00328,3.00328,0,0,1,3,3v1.17236A3.00328,3.00328,0,0,1,838.684,356.82391Z" transform="translate(-332.67928 -256.17913)" fill="#fff"/><path d="M474.41521,543.107v2a12.51087,12.51087,0,0,0,12.5,12.5h90a12.5046,12.5046,0,0,0,12.5-12.5v-2a12.41033,12.41033,0,0,0-2.90039-8,12.86,12.86,0,0,0-2.10987-2s-49.48-1.12-49.48-2.5H486.91521A12.51734,12.51734,0,0,0,474.41521,543.107Z" transform="translate(-332.67928 -256.17913)" fill="#ccc"/><rect x="193.45948" y="300.93128" width="13" height="84" fill="#ccc"/><path d="M576.13876,640.65372c0,1.40463-19.69947.54331-44,.54331s-44,.86132-44-.54331,19.69947-12.5433,44-12.5433S576.13876,639.24909,576.13876,640.65372Z" transform="translate(-332.67928 -256.17913)" fill="#ccc"/><path d="M558.26576,541.41065a10.74268,10.74268,0,0,0-3.80712-16.02665l-27.55286-93.88523-20.9809,10.27566,33.6809,89.055a10.80091,10.80091,0,0,0,18.66,10.58124Z" transform="translate(-332.67928 -256.17913)" fill="#a0616a"/><path d="M533.1478,447.17762l-23.48261,6.35682a4.81688,4.81688,0,0,1-6.04231-4.08553l-2.83827-24.08747a13.37737,13.37737,0,0,1,25.84551-6.91524l9.674,22.15579a4.81687,4.81687,0,0,1-3.1563,6.57563Z" transform="translate(-332.67928 -256.17913)" fill="#537ee2"/><polygon points="231.724 374.629 243.983 374.628 249.816 342.832 231.722 342.832 231.724 374.629" fill="#a0616a"/><path d="M561.2757,626.80534l24.1438-.001h.001A15.38605,15.38605,0,0,1,600.807,642.19059v.5l-39.53051.00147Z" transform="translate(-332.67928 -256.17913)" fill="#2f2e41"/><path d="M578.63344,613.75734q-.21425,0-.43018-.0205l-16.96655-1.23536a4.49993,4.49993,0,0,1-3.80933-6.02929l22.70654-51.01465a3.49812,3.49812,0,0,0-.19628-2.79883,3.45079,3.45079,0,0,0-2.21119-1.75976c-10.67724-2.791-38.072-10.22266-61.78637-18.918-10.15992-3.72559-16.55884-9.10938-19.0188-16.002-3.24317-9.08691,1.55469-17.374,1.7605-17.72168l.16088-.27246,22.3147,2.02832,24.19116,2.05762L598.362,530.49855a20.086,20.086,0,0,1,8.81861,25.78418l-24.44092,54.80762A4.4969,4.4969,0,0,1,578.63344,613.75734Z" transform="translate(-332.67928 -256.17913)" fill="#2f2e41"/><circle cx="192.35811" cy="118.34393" r="24.56103" fill="#a0616a"/><polygon points="224.724 373.629 236.983 373.628 242.816 341.832 224.722 341.832 224.724 373.629" fill="#a0616a"/><path d="M554.2757,625.80534l24.1438-.001h.001A15.38605,15.38605,0,0,1,593.807,641.19059v.5l-39.53051.00147Z" transform="translate(-332.67928 -256.17913)" fill="#2f2e41"/><path d="M571.63344,616.75734q-.21425,0-.43018-.0205l-16.96655-1.23536a4.49993,4.49993,0,0,1-3.80933-6.02929l22.70654-51.01465a3.49812,3.49812,0,0,0-.19628-2.79883,3.45079,3.45079,0,0,0-2.21119-1.75976c-10.67724-2.791-38.072-10.22266-61.78637-18.918-10.15992-3.72559-16.55884-9.10938-19.0188-16.002-3.24317-9.08691,1.55469-17.374,1.7605-17.72168l.16088-.27246,22.3147,2.02832,24.19116,2.05762L591.362,533.49855a20.086,20.086,0,0,1,8.81861,25.78418l-24.44092,54.80762A4.4969,4.4969,0,0,1,571.63344,616.75734Z" transform="translate(-332.67928 -256.17913)" fill="#2f2e41"/><path d="M532.6122,413.01125l-26-9s-16.322,12.54-8.481,43.64856a77.01216,77.01216,0,0,1-3.40009,48.32025,49.7787,49.7787,0,0,1-2.61889,5.53119s29,35,56,9l-10.5-50.5S554.1122,426.51125,532.6122,413.01125Z" transform="translate(-332.67928 -256.17913)" fill="#537ee2"/><path d="M528.08681,399.91939c-3.49562-5.2323-6.25434-12.48756-2.40565-17.4659,3.79908-4.91417,11.29215-4.19018,17.11054-6.36467,8.104-3.02866,12.80409-12.5493,11.33824-21.07564s-8.31031-15.59442-16.46405-18.48644-17.34838-1.95148-25.33312,1.37886c-9.82931,4.0997-18.26114,12.03028-21.79685,22.07626s-1.6456,22.10807,5.68929,29.82962c7.8638,8.27835,20.20556,10.48454,31.62276,10.35068" transform="translate(-332.67928 -256.17913)" fill="#2f2e41"/><path d="M505.23992,355.28681c-4.40483,3.58588-11.12526,1.99318-15.85359-1.15387s-8.56507-7.62825-13.681-10.09566c-9.01922-4.35-19.92379-1.45825-28.70172,3.36009s-16.55915,11.475-25.83123,15.25617-21.10394,3.96808-28.12485-3.17161a25.732,25.732,0,0,0,37.7101,30.37145c10.1594-6.18838,15.77105-19.1637,27.16592-22.57932,6.30551-1.89008,13.07633-.36778,19.44917,1.281s13.01783,3.43041,19.44912,2.02674,12.447-7.18311,11.6288-13.71475Z" transform="translate(-332.67928 -256.17913)" fill="#2f2e41"/><path d="M585.19358,584.7137a167.50573,167.50573,0,0,1,0-50.97534,4.30257,4.30257,0,0,1,4.23709-3.60571h39.87252a4.24659,4.24659,0,0,1,3.35526,1.62625,4.31918,4.31918,0,0,1,.8074,3.70455,102.3282,102.3282,0,0,0-.0003,47.52515,4.31808,4.31808,0,0,1-.8071,3.70456,4.24662,4.24662,0,0,1-3.35526,1.62625H589.43067A4.30257,4.30257,0,0,1,585.19358,584.7137Z" transform="translate(-332.67928 -256.17913)" fill="#ff6584"/><path d="M617.03312,554.80926H596.10953a3.00328,3.00328,0,0,1-3-3v-1.17187a3.00328,3.00328,0,0,1,3-3h20.92359a3.00328,3.00328,0,0,1,3,3v1.17187A3.00328,3.00328,0,0,1,617.03312,554.80926Z" transform="translate(-332.67928 -256.17913)" fill="#fff"/><path d="M617.03312,567.154H596.10953a3.00329,3.00329,0,0,1-3-3v-1.17237a3.00329,3.00329,0,0,1,3-3h20.92359a3.00329,3.00329,0,0,1,3,3V564.154A3.00329,3.00329,0,0,1,617.03312,567.154Z" transform="translate(-332.67928 -256.17913)" fill="#fff"/><path d="M595.67882,536.91131a10.7427,10.7427,0,0,0-7.69047-14.56723L537.853,438.32l-17.74827,15.19166,54.86228,77.816a10.8009,10.8009,0,0,0,20.71182,5.58366Z" transform="translate(-332.67928 -256.17913)" fill="#a0616a"/><path d="M547.81427,451.94215l-21.14973,12.02212a4.81688,4.81688,0,0,1-6.87142-2.44636l-8.76627-22.61447A13.37737,13.37737,0,0,1,534.325,425.75026l14.90259,19.03622a4.81689,4.81689,0,0,1-1.41334,7.15567Z" transform="translate(-332.67928 -256.17913)" fill="#537ee2"/><path d="M715.67928,641.82087a.99651.99651,0,0,1-1,1h-381a1,1,0,0,1,0-2h381A.9965.9965,0,0,1,715.67928,641.82087Z" transform="translate(-332.67928 -256.17913)" fill="#3f3d56"/></svg>