<svg data-name="Layer 1" xmlns="http://www.w3.org/2000/svg" width="604.68219" height="727.77805" viewBox="0 0 604.68219 727.77805" xmlns:xlink="http://www.w3.org/1999/xlink"><path d="M304.89621,496.24513l-7.2373,42.31058s1.67016,39.527,15.03143,38.41358,0-41.19715,0-41.19715l12.8045-35.07324Z" transform="translate(-297.65891 -86.11098)" fill="#ffb9b9"/><path d="M330.50534,433.33592l-5.0105,62.90918-23.9389-3.3403,8.35077-52.33148V395.47914l9.46423-9.46423Z" transform="translate(-297.65891 -86.11098)" fill="#e6e6e6"/><polygon points="5.01 414.587 29.506 419.041 30.62 407.35 2.784 406.237 5.01 414.587" fill="#3f3d56"/><polygon points="43.702 241.726 46.208 260.933 48.713 280.14 82.673 275.13 79.332 241.726 43.702 241.726" fill="#ffb9b9"/><path d="M427.931,486.78093l-7.79407,30.06278-6.6806,10.57769s5.0105,20.0419,10.02093,19.48514,8.35077-19.48517,8.35077-19.48517l18.92841-40.64044Z" transform="translate(-297.65891 -86.11098)" fill="#ffb9b9"/><path d="M334.95908,509.60631s-3.897,18.92841-12.80451,27.2792,20.59857,229.92466,20.59857,229.92466,20.59864,6.6806,30.61951,7.79406,3.897-117.46753,3.897-117.46753V624.84709s20.04187,127.48847,20.04187,129.15863v8.35077l10.02094,10.57764s17.2583-4.45374,20.04187,0,10.021,5.01044,12.2478,6.6806-12.8045-231.59479-12.8045-231.59479l-15.58814-24.4956Z" transform="translate(-297.65891 -86.11098)" fill="#2f2e41"/><circle cx="60.68231" cy="225.86041" r="26.72248" fill="#ffb9b9"/><path d="M409.00259,402.71645c0,1.11343,16.14484,46.76434,15.03144,48.43451s1.11346,30.6195,1.11346,30.6195h28.94934a19.71454,19.71454,0,0,0,1.11341-6.68063c0-3.897-5.01056-46.76434-10.57776-72.93008S421.807,364.3029,421.807,364.3029l-3.897,2.22687S409.00259,401.603,409.00259,402.71645Z" transform="translate(-297.65891 -86.11098)" fill="#e6e6e6"/><polygon points="127.488 404.567 151.984 404.01 160.892 395.659 125.818 393.432 127.488 404.567" fill="#3f3d56"/><path d="M358.34128,527.42134l5.01044,19.48514s20.04187-3.897,27.83593-6.6806,29.506-5.56717,29.506-5.56717l-7.23737-13.36124Z" transform="translate(-297.65891 -86.11098)" fill="#3f3d56"/><polygon points="24.496 437.413 21.712 454.671 46.208 459.682 52.332 441.31 24.496 437.413" fill="#3f3d56"/><path d="M343.86655,357.0656s-2.22681,5.01047-16.70154,10.02093-17.2583,28.39264-17.2583,28.39264,17.25824,46.76435,16.70154,50.10465,2.22686,11.13437,2.22686,11.13437l-2.78357,47.321-5.5672,21.15531c49.548,18.37167,96.869-2.7836,96.869-2.7836s-2.22693-20.59858-1.11346-26.16578,2.78363-56.78527,2.78363-56.78527l2.78357-75.157-32.84638-11.691-5.5672-4.45373s-1.1134-12.80457-2.78357-13.918-6.1239,4.45376-12.2478,11.13437-18.9284,5.56717-22.82544,3.3403-5.5672-1.11343-5.5672-1.11343C337.18594,349.82823,343.86655,357.0656,343.86655,357.0656Z" transform="translate(-297.65891 -86.11098)" fill="#e6e6e6"/><path d="M378.15134,300.71916c-3.3086-9.17883-16.97016-2.02789-29.671.42691s-12.12952,26.69181-12.12952,26.69181-7.79407-12.87058-7.79407-27.27918,6.84912-10.99283,7.80969-13.12744,3.5221-.64038,3.5221-.64038,1.38751-5.33653,5.2298-4.58942a5.44628,5.44628,0,0,0,5.65673-2.13461c18.57111-9.92592,15.68934-.74712,22.73359.53365s5.97693,2.98844,8.21826,7.0442a77.11545,77.11545,0,0,1,4.48266,11.31339,26.20111,26.20111,0,0,0,.74714,7.79132c1.06732,4.48269-1.70771,8.64517-1.70771,8.64517A69.97219,69.97219,0,0,1,378.15134,300.71916Z" transform="translate(-297.65891 -86.11098)" fill="#2f2e41"/><ellipse cx="38.41357" cy="231.70594" rx="2.50525" ry="3.34032" fill="#ffb9b9"/><path d="M369.84518,765.81651l2.93647,23.49183s2.93646,5.873,0,8.80944,0,10.76709,0,10.76709-6.85175,5.87293-22.513,4.89411-11.74591-13.70355-7.83063-19.57654,3.91528-17.6189,3.91528-17.6189l3.91529-11.74591Z" transform="translate(-297.65891 -86.11098)" fill="#2f2e41"/><path d="M406.96207,765.81651l-2.93647,23.49183s-2.93646,5.873,0,8.80944,0,10.76709,0,10.76709,6.85175,5.87293,22.513,4.89411,11.74592-13.70355,7.83063-19.57654-3.91528-17.6189-3.91528-17.6189l-3.91535-11.74591Z" transform="translate(-297.65891 -86.11098)" fill="#2f2e41"/><path d="M902.34109,259.05823h-3.99877V149.51289A63.40185,63.40185,0,0,0,834.94052,86.111H602.85379a63.40185,63.40185,0,0,0-63.402,63.40172V750.48711a63.40186,63.40186,0,0,0,63.4018,63.40191H834.94022a63.40186,63.40186,0,0,0,63.402-63.40167V337.03447h3.99884Z" transform="translate(-297.65891 -86.11098)" fill="#3f3d56"/><path d="M837.49857,102.606h-30.295a22.49484,22.49484,0,0,1-20.82715,30.99052H653.417a22.49482,22.49482,0,0,1-20.82715-30.99056H604.29422a47.34781,47.34781,0,0,0-47.34784,47.34774V750.04625a47.34781,47.34781,0,0,0,47.34778,47.34784H837.49857a47.3478,47.3478,0,0,0,47.34783-47.34778h0V149.9537A47.34776,47.34776,0,0,0,837.49857,102.606Z" transform="translate(-297.65891 -86.11098)" fill="#fff"/><path d="M593.85938,176.08252a5.00588,5.00588,0,0,0-5,5V730.918a5.00589,5.00589,0,0,0,5,5H847.93359a5.00589,5.00589,0,0,0,5-5V181.08252a5.00588,5.00588,0,0,0-5-5Z" transform="translate(-297.65891 -86.11098)" fill="#537ee2"/><path d="M695.49553,554.78613c0-38.91466,7.41029-81.62148,32.41517-114.96131,34.81337-46.41844,32.9557-103.608,25.265-143.40939A312.51474,312.51474,0,0,0,727.746,220.07074l3.36175-1.75307A316.486,316.486,0,0,1,756.879,295.59721c7.85457,40.58351,9.73167,98.94487-25.936,146.50271-66.81942,89.09287-6.80588,248.62422-6.19406,250.22365l-3.53946,1.35877a459.41165,459.41165,0,0,1-22.47616-92.32782A352.972,352.972,0,0,1,695.49553,554.78613Z" transform="translate(-297.65891 -86.11098)" fill="#fff"/><path d="M729.42681,219.17569s31.68,130.79728-11.6956,221.78668.32193,252.11648.32193,252.11648" transform="translate(-297.65891 -86.11098)" fill="#fff" opacity="0.3" style="isolation:isolate"/><path d="M680.21493,342.658a249.18774,249.18774,0,0,1,4.69924-47.0608,316.486,316.486,0,0,1,25.77126-77.27954l3.36175,1.75307a312.51474,312.51474,0,0,0-25.42966,76.34469c-7.68982,39.79953-9.54841,96.99,25.265,143.40939,35.63715,47.5162,35.53718,114.07275,29.17744,161.5297a459.41231,459.41231,0,0,1-22.47615,92.32782l-3.53947-1.35877c.61367-1.60128,60.62814-161.12893-6.19406-250.22365C687.45954,410.91314,680.21493,375.07687,680.21493,342.658Z" transform="translate(-297.65891 -86.11098)" fill="#fff" opacity="0.3" style="isolation:isolate"/><path d="M695.4798,343.30228c0-65.65317,23.55354-123.95529,23.9136-124.82986l3.50614,1.44392c-.535,1.29768-52.88648,130.96475-.12218,220.08075,53.68342,90.65712,5.76453,251.93784,5.274,253.55578l-3.62833-1.0996c.485-1.60128,47.92346-161.30294-4.90749-250.52539C701.486,411.47949,695.4798,376.4523,695.4798,343.30228Z" transform="translate(-297.65891 -86.11098)" fill="#fff" opacity="0.3" style="isolation:isolate"/><path d="M724.06191,219.19467s-43.37562,130.7783,0,221.7677,4.09846,252.0407,4.09846,252.0407" transform="translate(-297.65891 -86.11098)" fill="#fff" opacity="0.3" style="isolation:isolate"/><path d="M729.42681,219.19467s68.24206,130.7783,0,221.7677-6.44807,252.0407-6.44807,252.0407" transform="translate(-297.65891 -86.11098)" fill="#fff" opacity="0.3" style="isolation:isolate"/></svg>