<svg width="1440" height="100" viewBox="0 0 1440 100" fill="none" xmlns="http://www.w3.org/2000/svg">
<path d="M0 0H1439.14V100H0V0Z" fill="hsl(245, 87%, 94%)"/>
<path d="M1370.76 33.9504C1394.47 12.8157 1423.74 15.3572 1439.14 33.9504V100L0 97.6554V38.5187C35.8515 -0.818838 74.657 -8.27496 124.35 19.5012C173.766 -1.86089 205.641 4.74005 240.947 34.09C266.288 28.4217 276.574 30.9422 289.395 43.4685C324.923 18.4592 363.449 24.0972 407.285 58.3178C438.57 45.9342 453.84 46.6002 477.373 59.8809C503.858 31.4849 545.037 32.5922 587.017 56.7557C601.45 49.4183 611.639 49.4398 633.105 55.9711C674.856 29.1899 709.413 29.8905 746.852 55.9711C777.425 32.3718 809.677 33.0795 847.119 55.9711C865.529 44.0389 879.492 44.7436 893.802 55.9711C925.361 38.4705 952.637 39.6463 980.919 57.8272C999.752 44.2041 1012.69 43.7751 1038.78 52.2589C1051.27 24.6822 1080.02 23.4108 1119.35 41.4143C1151.54 6.65124 1192.62 3.24786 1239.74 22.0747C1286.41 -11.5396 1336.89 -6.12333 1370.76 33.9504Z" fill="#fff"/>
<rect y="80.3782" width="1423.4" height="19.6218" fill="#fff"/>
</svg>
